<?xml version="1.0" encoding="UTF-8" standalone="no"?>
<!DOCTYPE svg PUBLIC "-//W3C//DTD SVG 1.1//EN" "http://www.w3.org/Graphics/SVG/1.1/DTD/svg11.dtd">
<svg width="100%" height="100%" viewBox="0 0 591 119" version="1.1" xmlns="http://www.w3.org/2000/svg" xmlns:xlink="http://www.w3.org/1999/xlink" xml:space="preserve" xmlns:serif="http://www.serif.com/" style="fill-rule:evenodd;clip-rule:evenodd;stroke-linecap:square;stroke-linejoin:round;stroke-miterlimit:2;">
    <g transform="matrix(0,0.232934,-3.559785,0,1352.531603,64.462475)">
        <path d="M105,221.683L105,372.317C105,373.798 86.629,375 64,375C41.371,375 23,373.798 23,372.317L23,221.683C23,220.202 41.371,219 64,219C86.629,219 105,220.202 105,221.683Z" style="fill:url(#_Linear1);stroke:black;stroke-width:0.75px;"/>
    </g>
    <g transform="matrix(1,0,0,1,3.823925,-13)">
        <g transform="matrix(0.622453,0,0,0.622453,7.91935,39.318307)">
            <g transform="matrix(50,0,0,50,99.090844,50.133128)">
            </g>
            <text x="27.191px" y="50.133px" style="font-family:'NotoSansJP-Medium', 'Noto Sans JP', sans-serif;font-weight:500;font-size:50px;">0.5</text>
        </g>
        <g transform="matrix(0.622453,0,0,0.622453,506.276599,39.318307)">
            <g transform="matrix(50,0,0,50,84.190844,50.133128)">
            </g>
            <text x="12.291px" y="50.133px" style="font-family:'NotoSansJP-Medium', 'Noto Sans JP', sans-serif;font-weight:500;font-size:50px;">3.2</text>
        </g>
        <g transform="matrix(0.491379,0,0,0.491379,286.802005,30.420947)">
            <g transform="matrix(50,0,0,50,185.790844,50.133128)">
            </g>
            <text x="-164.209px" y="50.133px" style="font-family:'NotoSansJP-Medium', 'Noto Sans JP', sans-serif;font-weight:500;font-size:50px;">表層地盤増幅率</text>
        </g>
        <g transform="matrix(0.343756,0,0,0.343756,288.400949,58.360918)">
            <g transform="matrix(50,0,0,50,211.665844,50.133128)">
            </g>
            <text x="-190.084px" y="50.133px" style="font-family:'NotoSansJP-Regular', 'Noto Sans JP', sans-serif;font-size:50px;">V<tspan x="-162.034px " y="50.133px ">s</tspan>=400m/s～地表</text>
        </g>
    </g>
    <defs>
        <linearGradient id="_Linear1" x1="0" y1="0" x2="1" y2="0" gradientUnits="userSpaceOnUse" gradientTransform="matrix(0,-156.171,156.171,0,0,375.308)"><stop offset="0" style="stop-color:rgb(0,3,214);stop-opacity:1"/><stop offset="0.03" style="stop-color:rgb(16,226,112);stop-opacity:1"/><stop offset="0.1" style="stop-color:rgb(101,247,47);stop-opacity:1"/><stop offset="0.14" style="stop-color:rgb(150,255,20);stop-opacity:1"/><stop offset="0.19" style="stop-color:rgb(219,255,7);stop-opacity:1"/><stop offset="0.31" style="stop-color:rgb(255,211,0);stop-opacity:1"/><stop offset="0.42" style="stop-color:rgb(251,140,0);stop-opacity:1"/><stop offset="1" style="stop-color:rgb(176,0,0);stop-opacity:1"/></linearGradient>
    </defs>
</svg>
